<svg viewBox="0 0 400 400" xmlns="http://www.w3.org/2000/svg">
  <!-- Tree crown - abstract organic shape -->
  <circle cx="200" cy="120" r="40" fill="#8FA68E" opacity="0.6"/>
  <circle cx="180" cy="110" r="25" fill="#D4AF37" opacity="0.4"/>
  <circle cx="220" cy="125" r="30" fill="#F5F3F0" opacity="0.5"/>

  <!-- Tree trunk/body -->
  <rect x="185" y="160" width="30" height="120" fill="#8FA68E" rx="15"/>

  <!-- Standing leg (tree trunk) -->
  <rect x="190" y="280" width="20" height="80" fill="#8FA68E" rx="10"/>

  <!-- Bent leg forming triangle -->
  <path d="M170 220 L140 240 L170 260 Z" fill="#D4AF37" opacity="0.8"/>

  <!-- Arms reaching up like branches -->
  <ellipse cx="160" cy="180" rx="6" ry="35" fill="#D4AF37" transform="rotate(-30 160 180)"/>
  <ellipse cx="240" cy="180" rx="6" ry="35" fill="#D4AF37" transform="rotate(30 240 180)"/>

  <!-- Head -->
  <circle cx="200" cy="140" r="16" fill="#F5F3F0"/>

  <!-- Root system -->
  <ellipse cx="200" cy="370" rx="60" ry="15" fill="#8FA68E" opacity="0.3"/>
  <line x1="180" y1="360" x2="160" y2="375" stroke="#8FA68E" stroke-width="3" opacity="0.5"/>
  <line x1="220" y1="360" x2="240" y2="375" stroke="#8FA68E" stroke-width="3" opacity="0.5"/>

  <!-- Floating leaves for balance -->
  <circle cx="120" cy="140" r="4" fill="#D4AF37" opacity="0.6"/>
  <circle cx="280" cy="160" r="3" fill="#8FA68E" opacity="0.6"/>
  <circle cx="300" cy="200" r="5" fill="#F5F3F0" opacity="0.7"/>
</svg>