<svg viewBox="0 0 400 400" xmlns="http://www.w3.org/2000/svg">
  <!-- Background geometric triangles -->
  <polygon points="100,100 150,50 200,100" fill="#D4AF37" opacity="0.3"/>
  <polygon points="300,120 350,80 380,130" fill="#F5F3F0" opacity="0.4"/>

  <!-- Main figure forming triangle -->
  <!-- Legs forming base -->
  <rect x="120" y="280" width="18" height="80" fill="#8FA68E" rx="9"/>
  <rect x="250" y="280" width="18" height="80" fill="#8FA68E" rx="9"/>

  <!-- Torso angled -->
  <rect x="160" y="200" width="80" height="20" fill="#8FA68E" rx="10" transform="rotate(-25 200 210)"/>

  <!-- Extended arm reaching down -->
  <rect x="110" y="250" width="15" height="60" fill="#D4AF37" rx="8" transform="rotate(-15 117.5 280)"/>

  <!-- Raised arm pointing up -->
  <rect x="220" y="120" width="15" height="70" fill="#D4AF37" rx="8" transform="rotate(35 227.5 155)"/>

  <!-- Head -->
  <circle cx="180" cy="180" r="16" fill="#F5F3F0"/>

  <!-- Triangle energy flow -->
  <path d="M130 350 L180 180 L270 180 Z" stroke="#8FA68E" stroke-width="3" fill="none" opacity="0.4"/>

  <!-- Ground connection -->
  <ellipse cx="130" cy="360" rx="15" ry="8" fill="#8FA68E" opacity="0.6"/>
  <ellipse cx="260" cy="360" rx="15" ry="8" fill="#8FA68E" opacity="0.6"/>

  <!-- Balance lines -->
  <line x1="120" y1="270" x2="100" y2="260" stroke="#D4AF37" stroke-width="2" opacity="0.5"/>
  <line x1="250" y1="140" x2="280" y2="120" stroke="#D4AF37" stroke-width="2" opacity="0.5"/>

  <!-- Floating geometric elements -->
  <polygon points="320,200 330,180 340,200" fill="#8FA68E" opacity="0.4"/>
  <circle cx="80" cy="150" r="4" fill="#F5F3F0" opacity="0.6"/>
</svg>